<?xml version="1.0" standalone="no"?><!DOCTYPE svg PUBLIC "-//W3C//DTD SVG 1.1//EN" "http://www.w3.org/Graphics/SVG/1.1/DTD/svg11.dtd"><svg t="1725872092664" class="icon" viewBox="0 0 1024 1024" version="1.1" xmlns="http://www.w3.org/2000/svg" p-id="50991" xmlns:xlink="http://www.w3.org/1999/xlink" width="200" height="200"><path d="M0 0m0 0l1024 0q0 0 0 0l0 1024q0 0 0 0l-1024 0q0 0 0 0l0-1024q0 0 0 0Z" fill="#e6e6e6" fill-opacity="0" p-id="50992"></path><path d="M934.213818 287.278545c-2.792727-3.258182-6.050909-6.516364-9.309091-9.30909-3.723636-2.792727-7.447273-4.654545-11.636363-6.516364l-463.127273-197.352727a41.890909 41.890909 0 0 0-13.032727-3.723637 60.974545 60.974545 0 0 0-25.6 2.792728c-4.189091 1.861818-7.912727 3.723636-11.636364 6.516363-3.723636 2.792727-6.981818 5.585455-9.774545 9.309091-2.792727 3.258182-5.12 6.981818-6.516364 11.170909-1.861818 3.723636-3.258182 7.912727-4.189091 12.567273-0.465455 4.189091-0.930909 8.843636-0.465455 13.032727l10.24 110.778182-290.443636 274.152727a75.170909 75.170909 0 0 0-23.272727 48.407273c-0.465455 6.050909 0 12.101818 1.396363 18.152727 0.930909 6.050909 2.792727 12.101818 5.12 17.687273 2.792727 5.585455 6.050909 10.705455 9.774546 15.36 3.723636 4.654545 7.912727 8.843636 13.032727 12.567273 4.654545 4.189091 10.24 6.981818 15.825455 9.309091l278.807272 118.690909-73.541818 173.149091c-0.465455 0-0.465455 0.465455-0.465454 0.930909-0.465455 0.465455-0.465455 0.930909-0.465455 1.396363l-0.465454 1.396364c0 0.465455-0.465455 0.930909-0.465455 1.396364v1.396363c-0.465455 0.465455-0.465455 0.930909-0.465454 1.396364v6.981818c0.465455 0.465455 0.465455 0.930909 0.465454 1.396364v1.396363c0.465455 0.465455 0.465455 0.930909 0.465455 1.396364 0.465455 0.465455 0.465455 0.930909 0.465454 1.396364 0.465455 0 0.465455 0.465455 0.465455 0.930909 0.465455 0.465455 0.465455 0.930909 0.465454 1.396363 0.465455 0.465455 0.465455 0.930909 0.930909 1.396364q0 0.465455 0.465455 0.930909c0.465455 0.465455 0.465455 0.930909 0.930909 1.396364 0 0.465455 0.465455 0.930909 0.930909 0.930909l0.465455 1.396363c0.465455 0.465455 0.930909 0.465455 0.930909 0.93091l0.930909 0.930909c0.465455 0.465455 0.930909 0.930909 1.396363 0.930909 0 0.465455 0.465455 0.930909 0.93091 0.930909 0.465455 0.465455 0.465455 0.930909 0.930909 0.930909 0.465455 0.465455 0.930909 0.465455 0.930909 0.930909 0.465455 0.465455 0.930909 0.465455 1.396363 0.930909l1.396364 0.465455c0.465455 0.465455 0.465455 0.465455 0.930909 0.465454 0.465455 0.465455 0.930909 0.465455 1.396364 0.930909 0.465455 0 0.930909 0 1.396363 0.465455 0.465455 0 0.930909 0 1.396364 0.465454l0.930909 0.465455h1.861818c0 0.465455 0.465455 0.465455 0.930909 0.465454h1.396364c0.465455 0 0.930909 0.465455 1.396364 0.465455h2.792727c0.465455-0.465455 0.930909-0.465455 1.396364-0.465455h2.792727c0.465455-0.465455 0.930909-0.465455 1.396363-0.465454 0.465455 0 0.930909-0.465455 1.396364-0.465455 0.465455 0 0.930909 0 1.396364-0.465454 0.465455 0 0.930909 0 1.396363-0.465455q0.465455 0 0.930909-0.465454c0.465455 0 0.930909-0.465455 1.396364-0.465455 0.465455-0.465455 0.930909-0.465455 1.396364-0.930909q0.465455 0 0.930909-0.465454c0.465455-0.465455 0.930909-0.465455 1.396363-0.93091l0.93091-0.930909c0.465455-0.465455 0.930909-0.465455 1.396363-0.930909 0-0.465455 0.465455-0.465455 0.930909-0.930909 0-0.465455 0.465455-0.465455 0.930909-0.930909l0.930909-0.930909c0-0.465455 0.465455-0.930909 0.93091-1.396364q0.465455-0.465455 0.465454-0.930909c0.465455-0.465455 0.930909-0.930909 0.930909-1.396363l0.930909-0.930909c0-0.465455 0.465455-0.930909 0.465455-1.396364 0-0.465455 0.465455-0.930909 0.465454-1.396364l73.541819-172.683636 284.858181 121.483636a70.888727 70.888727 0 0 0 35.374546 5.585455c6.050909-0.465455 12.101818-1.861818 17.687273-3.723637 6.050909-2.327273 11.636364-5.12 16.756363-8.378181 5.12-3.258182 9.774545-7.447273 13.963637-12.101819 3.723636-4.189091 7.447273-9.309091 10.24-14.42909a77.125818 77.125818 0 0 0 8.843636-35.374546l-0.930909-398.429091 87.04-69.352727c3.258182-2.792727 6.516364-6.050909 9.309091-9.774546 2.327273-3.258182 4.654545-6.981818 6.050909-11.170909 1.861818-4.189091 2.792727-8.378182 3.258182-12.567272 0.930909-4.654545 0.930909-8.843636 0-13.498182a55.389091 55.389091 0 0 0-3.258182-12.567273c-1.861818-4.189091-4.189091-7.912727-6.516364-11.636364z m-175.476363 554.821819l-615.796364-262.050909a10.146909 10.146909 0 0 1-3.723636-2.327273c-1.396364-0.930909-2.327273-1.861818-3.258182-2.792727a9.355636 9.355636 0 0 1-1.861818-3.723637c-0.930909-1.396364-1.396364-2.327273-1.396364-3.723636-0.465455-1.396364-0.465455-2.792727-0.465455-4.189091 0.465455-1.861818 0.465455-2.792727 0.930909-4.189091s0.930909-2.792727 1.861819-3.723636c0.930909-1.396364 1.861818-2.327273 2.792727-3.723637l292.305454-275.549091a55.621818 55.621818 0 0 0 13.032728-19.083636 49.105455 49.105455 0 0 0 2.792727-22.807273l-9.309091-104.261818 445.905455 189.905455-81.92 65.163636c-2.792727 2.327273-5.585455 5.12-7.912728 8.378182-2.327273 2.792727-4.654545 6.050909-6.050909 9.774545-1.861818 3.258182-2.792727 6.981818-3.723636 10.705455-0.930909 3.723636-1.396364 7.447273-1.396364 11.170909l0.930909 401.687273c0 1.396364-0.465455 2.792727-0.465454 4.189091-0.465455 0.930909-0.930909 2.327273-1.861818 3.723636-0.465455 1.396364-1.396364 2.327273-2.327273 3.258182-0.930909 0.930909-1.861818 2.327273-3.258182 2.792727-0.930909 0.930909-2.327273 1.396364-3.723636 1.861818-1.396364 0.465455-2.792727 0.930909-4.189091 0.930909h-4.189091c-1.396364-0.465455-2.792727-0.465455-3.723636-1.396363z" fill="#e6e6e6" p-id="50993"></path></svg>