<?xml version="1.0" standalone="no"?><!DOCTYPE svg PUBLIC "-//W3C//DTD SVG 1.1//EN" "http://www.w3.org/Graphics/SVG/1.1/DTD/svg11.dtd"><svg t="1738572110883" class="icon" viewBox="0 0 1024 1024" version="1.1" xmlns="http://www.w3.org/2000/svg" p-id="3359" xmlns:xlink="http://www.w3.org/1999/xlink" width="256" height="256"><path d="M512 213.3C264.6 213.3 64 423 64 512c0 119.4 200.6 298.7 448 298.7S960 631.5 960 512c0-119.1-200.6-298.7-448-298.7z m0 537.6c-214.4 0-388.3-177.8-388.3-238.9 0-58.8 173.8-238.9 388.3-238.9S900.3 451.8 900.3 512c0 59.5-173.9 238.9-388.3 238.9z" fill="#ffffff" p-id="3360"></path><path d="M512 332.8c-99 0-179.2 80.2-179.2 179.2S413 691.2 512 691.2 691.2 611 691.2 512 611 332.8 512 332.8z m0 298.7c-66 0-119.5-53.5-119.5-119.5S446 392.5 512 392.5 631.5 446 631.5 512 578 631.5 512 631.5z" fill="#ffffff" p-id="3361"></path></svg>