<?xml version="1.0" standalone="no"?><!DOCTYPE svg PUBLIC "-//W3C//DTD SVG 1.1//EN" "http://www.w3.org/Graphics/SVG/1.1/DTD/svg11.dtd"><svg t="1732595114353" class="icon" viewBox="0 0 1024 1024" version="1.1" xmlns="http://www.w3.org/2000/svg" p-id="27185" xmlns:xlink="http://www.w3.org/1999/xlink" width="200" height="200"><path d="M858.453295 128.000747c10.197257 0 18.986524 3.754639 26.410469 11.09325A35.96773 35.96773 0 0 1 895.99968 165.547132a36.095729 36.095729 0 0 1-11.135916 26.6238l-53.034269 52.991603A35.754399 35.754399 0 0 1 805.547025 255.999787 36.479726 36.479726 0 0 1 768.00064 218.496068a35.839731 35.839731 0 0 1 10.837252-26.367802l52.991603-52.991603A36.607725 36.607725 0 0 1 858.453295 128.000747zM895.99968 469.33152h85.332693c11.775912 0 21.845169 4.138636 30.122441 12.50124 8.40527 8.40527 12.543906 18.346529 12.543906 30.165107a40.746361 40.746361 0 0 1-12.543906 30.165107A40.831694 40.831694 0 0 1 981.332373 554.664213h-85.332693a41.002359 41.002359 0 0 1-30.165107-12.501239A41.002359 41.002359 0 0 1 853.333333 511.997867c0-11.818578 4.181302-21.759837 12.50124-30.165107a41.002359 41.002359 0 0 1 30.207773-12.50124zM512.00256 0.001707c11.775912 0 21.802503 4.266635 30.165107 12.501239A41.386356 41.386356 0 0 1 554.668907 42.625387v85.247361a40.959693 40.959693 0 0 1-12.50124 30.165107A41.130358 41.130358 0 0 1 512.00256 170.667093a41.130358 41.130358 0 0 1-30.165107-12.629238 40.959693 40.959693 0 0 1-12.50124-30.165107V42.668053a41.386356 41.386356 0 0 1 12.50124-30.12244A41.599688 41.599688 0 0 1 512.00256 0.001707zM165.509159 128.000747a36.266395 36.266395 0 0 1 26.367802 11.09325l52.991603 53.034269c7.466611 7.381278 11.135916 16.213212 11.135916 26.367802a35.882398 35.882398 0 0 1-11.007917 26.495801 35.882398 35.882398 0 0 1-26.495802 11.007918 36.43706 36.43706 0 0 1-26.666466-10.75192L138.842692 192.256265A36.266395 36.266395 0 0 1 128.00544 165.504465c0-10.367922 3.626639-19.114523 11.007917-26.495801A36.394394 36.394394 0 0 1 165.551825 128.000747h-0.042666zM805.504359 767.995947c10.154591 0 18.943858 3.626639 26.325136 11.09325l53.034269 52.90627c7.423944 7.509277 11.135916 16.213212 11.135916 26.581134a35.839731 35.839731 0 0 1-11.135916 26.325136 35.754399 35.754399 0 0 1-26.367803 11.09325 36.181062 36.181062 0 0 1-26.666466-11.09325l-52.991603-52.90627a35.583733 35.583733 0 0 1-10.837252-26.325136 36.266395 36.266395 0 0 1 11.007917-26.581134 36.138396 36.138396 0 0 1 26.495802-11.09325zM42.672747 469.33152h85.332693a40.959693 40.959693 0 0 1 30.165107 12.50124c8.319938 8.40527 12.50124 18.346529 12.50124 30.165107a41.002359 41.002359 0 0 1-12.50124 30.165107 40.959693 40.959693 0 0 1-30.207773 12.501239H42.672747a40.831694 40.831694 0 0 1-30.122441-12.501239A40.789027 40.789027 0 0 1 0.0064 511.997867a40.959693 40.959693 0 0 1 12.543906-30.165107A40.831694 40.831694 0 0 1 42.672747 469.33152zM512.00256 853.32864a40.959693 40.959693 0 0 1 30.165107 12.50124c8.319938 8.40527 12.50124 18.346529 12.50124 30.165107v85.332693a41.002359 41.002359 0 0 1-12.50124 30.165107A40.959693 40.959693 0 0 1 512.00256 1023.994027a40.959693 40.959693 0 0 1-30.165107-12.50124A41.002359 41.002359 0 0 1 469.336213 981.32768v-85.332693c0-11.818578 4.181302-21.759837 12.50124-30.165107A40.959693 40.959693 0 0 1 512.00256 853.32864zM218.500761 767.995947c10.325256 0 19.199856 3.626639 26.495802 11.09325 7.338612 7.381278 11.007917 16.213212 11.007917 26.581134 0 10.239923-3.754639 18.943858-11.135916 26.325136l-52.991603 52.90627a35.711732 35.711732 0 0 1-26.367802 11.09325 36.266395 36.266395 0 0 1-26.453135-10.837252 36.181062 36.181062 0 0 1-11.050584-26.581134c0-10.495921 3.583973-19.370521 10.837252-26.581134l52.991603-52.90627A36.053063 36.053063 0 0 1 218.458095 767.995947h0.042666zM512.00256 213.33344a294.355126 294.355126 0 0 0-149.929542 40.021033 298.451095 298.451095 0 0 0-108.585852 108.756518A292.648472 292.648472 0 0 0 213.338133 511.997867a293.117802 293.117802 0 0 0 40.149033 150.057541 300.157749 300.157749 0 0 0 108.37252 108.457853A292.947136 292.947136 0 0 0 512.00256 810.662293a292.605805 292.605805 0 0 0 150.014875-40.106366 299.859084 299.859084 0 0 0 108.457853-108.457853A293.075135 293.075135 0 0 0 810.62432 511.997867a292.43514 292.43514 0 0 0-40.149032-149.972209 298.109764 298.109764 0 0 0-108.37252-108.543186A294.568457 294.568457 0 0 0 512.00256 213.33344z m0 85.332693a209.065099 209.065099 0 0 1 107.09253 28.50112 212.691738 212.691738 0 0 1 77.652751 77.866083c19.114523 32.639755 28.586452 68.010157 28.586452 106.964531 0 38.997041-9.471929 74.367442-28.586452 107.09253a214.398392 214.398392 0 0 1-77.908749 77.866082c-32.426423 18.943858-67.796825 28.373121-106.836532 28.373121s-74.410109-9.386596-107.007197-28.458453a214.611724 214.611724 0 0 1-77.823417-77.866083A207.785108 207.785108 0 0 1 298.670827 511.997867c0-38.954375 9.471929-74.324776 28.501119-106.921865a212.990403 212.990403 0 0 1 77.908749-77.994082A208.851767 208.851767 0 0 1 512.00256 298.666133z" fill="currentColor" p-id="27186"></path></svg>