<?xml version="1.0" standalone="no"?><!DOCTYPE svg PUBLIC "-//W3C//DTD SVG 1.1//EN" "http://www.w3.org/Graphics/SVG/1.1/DTD/svg11.dtd"><svg t="1732534146429" class="icon" viewBox="0 0 1024 1024" version="1.1" xmlns="http://www.w3.org/2000/svg" p-id="3581" xmlns:xlink="http://www.w3.org/1999/xlink" width="200" height="200"><path d="M925.588211 820.762947l-315.472843 183.942737a259.530105 259.530105 0 0 1-196.257684 0L98.384842 820.762947A144.734316 144.734316 0 0 1 26.947368 695.592421V328.380632a144.788211 144.788211 0 0 1 71.464421-125.170527L413.884632 19.267368a259.530105 259.530105 0 0 1 196.257684 0l315.472842 183.942737A144.788211 144.788211 0 0 1 997.052632 328.380632v367.211789a144.734316 144.734316 0 0 1-71.464421 125.170526zM916.210526 350.666105a109.352421 109.352421 0 0 0-52.682105-93.938526l-272.168421-161.684211a225.306947 225.306947 0 0 0-158.989474 0l-272.168421 161.684211A109.352421 109.352421 0 0 0 107.789474 350.666105v322.66779a109.352421 109.352421 0 0 0 52.682105 93.911579l272.168421 161.68421a225.306947 225.306947 0 0 0 158.989474 0l272.168421-161.68421A109.352421 109.352421 0 0 0 916.210526 673.333895V350.666105zM512 700.631579a188.631579 188.631579 0 1 1 188.631579-188.631579 188.631579 188.631579 0 0 1-188.631579 188.631579z m0-323.368421a134.736842 134.736842 0 1 0 134.736842 134.736842 134.736842 134.736842 0 0 0-134.736842-134.736842z" fill="currentColor" p-id="3582"></path></svg>