<?xml version="1.0" standalone="no"?><!DOCTYPE svg PUBLIC "-//W3C//DTD SVG 1.1//EN" "http://www.w3.org/Graphics/SVG/1.1/DTD/svg11.dtd"><svg t="1732595035284" class="icon" viewBox="0 0 1024 1024" version="1.1" xmlns="http://www.w3.org/2000/svg" p-id="18183" xmlns:xlink="http://www.w3.org/1999/xlink" width="200" height="200"><path d="M369.664 899.584h-194.048v58.368h699.392v-58.368h-505.344z m543.744-835.072h-776.704c-32.256 0-58.368 26.112-58.368 58.368v543.744c0 32.256 26.112 58.368 58.368 58.368h776.704c32.256 0 58.368-26.112 58.368-58.368V122.88c0-32.256-26.112-58.368-58.368-58.368z m7.68 587.776c0 10.752-8.704 19.968-19.968 19.968h-752.64c-10.752 0-19.968-8.704-19.968-19.968V137.216c0-10.752 8.704-19.968 19.968-19.968h752.64c10.752 0 19.968 8.704 19.968 19.968v515.072z m-226.304 198.656v-55.296h-329.216v55.296h329.216z" fill="currentColor" p-id="18184"></path><path d="M445.44 291.328l190.976 110.08c12.288 7.168 12.288 24.576 0 31.744l-190.976 110.08c-12.288 7.168-27.136-1.536-27.136-15.872v-220.16c-0.512-14.336 14.848-23.04 27.136-15.872z" fill="currentColor" p-id="18185"></path></svg>