<svg width="12" height="14" viewBox="0 0 12 14" fill="none" xmlns="http://www.w3.org/2000/svg">
<path fill-rule="evenodd" clip-rule="evenodd" d="M1.86181 4.22361C1.93478 4.36954 2.07338 4.46917 2.23147 4.49396C3.04966 3.72399 4.10374 3.20186 5.27377 3.04752L4.1382 0.776393C4.05351 0.607001 3.88038 0.5 3.69099 0.5H0.809025C0.437334 0.5 0.195586 0.891156 0.361812 1.22361L1.86181 4.22361ZM7.86181 0.776393L6.72625 3.04752C7.89627 3.20187 8.95035 3.72399 9.76853 4.49396C9.92663 4.46917 10.0652 4.36954 10.1382 4.22361L11.6382 1.22361C11.8044 0.891156 11.5627 0.5 11.191 0.5H8.30903C8.11964 0.5 7.94651 0.607001 7.86181 0.776393ZM11 8.5C11 11.2614 8.76142 13.5 6 13.5C3.23858 13.5 1 11.2614 1 8.5C1 5.73858 3.23858 3.5 6 3.5C8.76142 3.5 11 5.73858 11 8.5ZM6.33284 5.72416L6.93458 7.11078C6.98777 7.23333 7.09875 7.31758 7.22673 7.33256L8.67477 7.50207C8.9869 7.5386 9.11244 7.94233 8.88048 8.16358L7.80434 9.19006C7.70923 9.28078 7.66684 9.41711 7.69275 9.54892L7.98594 11.0403C8.04913 11.3618 7.72046 11.6113 7.4474 11.4491L6.18056 10.6969C6.06859 10.6304 5.93141 10.6304 5.81944 10.6969L4.5526 11.4491C4.27954 11.6113 3.95086 11.3618 4.01406 11.0403L4.30725 9.54892C4.33316 9.41711 4.29077 9.28078 4.19566 9.19006L3.11952 8.16358C2.88756 7.94233 3.0131 7.5386 3.32523 7.50207L4.77326 7.33256C4.90124 7.31758 5.01223 7.23333 5.06541 7.11078L5.66716 5.72416C5.79687 5.42528 6.20313 5.42528 6.33284 5.72416Z" fill="var(--Or5, #FF7F24)"/>
</svg>
