<?xml version="1.0" standalone="no"?><!DOCTYPE svg PUBLIC "-//W3C//DTD SVG 1.1//EN" "http://www.w3.org/Graphics/SVG/1.1/DTD/svg11.dtd"><svg t="1725865643913" class="icon" viewBox="0 0 1024 1024" version="1.1" xmlns="http://www.w3.org/2000/svg" p-id="18175" xmlns:xlink="http://www.w3.org/1999/xlink" width="200" height="200"><path d="M448 878.08a46.08 46.08 0 1 0 0-92.16H182.3744a56.32 56.32 0 0 1-56.32-56.32V262.4a56.32 56.32 0 0 1 56.32-56.32h627.2a56.32 56.32 0 0 1 56.32 56.32V512a46.08 46.08 0 1 0 92.16 0V262.4a148.48 148.48 0 0 0-148.48-148.48H182.3744a148.48 148.48 0 0 0-148.48 148.48v467.2a148.48 148.48 0 0 0 148.48 148.48H448z m480 65.9456c35.328 0 64-28.672 64-64v-144.0256c0-35.328-28.672-64-64-64H640c-35.328 0-64 28.672-64 64v144.0256c0 35.328 28.672 64 64 64h288z" p-id="18176" fill="#e6e6e6"></path></svg>